{
    "asset" : {
        "generator" : "Khronos glTF Blender I/O v3.3.32",
        "version" : "2.0"
    },
    "scene" : 0,
    "scenes" : [
        {
            "name" : "Scene",
            "nodes" : [
                4
            ]
        }
    ],
    "nodes" : [
        {
            "name" : "Toast_Lever",
            "rotation" : [
                -0.7071068286895752,
                0,
                0,
                0.7071068286895752
            ],
            "translation" : [
                -2.7939677238464355e-07,
                -0.09213054180145264,
                -0.6880966424942017
            ]
        },
        {
            "name" : "Toast_Dial",
            "rotation" : [
                0.12474602460861206,
                2.1288134632868605e-07,
                6.0669096413334955e-09,
                0.9921886920928955
            ],
            "scale" : [
                1,
                0.9999999403953552,
                0.9999999403953552
            ],
            "translation" : [
                -2.9509124033211265e-07,
                -0.48068714141845703,
                -0.8835494518280029
            ]
        },
        {
            "children" : [
                0,
                1
            ],
            "name" : "Toast_Root"
        },
        {
            "mesh" : 0,
            "name" : "Toaster",
            "skin" : 0
        },
        {
            "children" : [
                3,
                2
            ],
            "name" : "Toast_Rig"
        }
    ],
    "materials" : [
        {
            "doubleSided" : true,
            "name" : "Material",
            "pbrMetallicRoughness" : {
                "baseColorTexture" : {
                    "index" : 0
                },
                "metallicFactor" : 0,
                "roughnessFactor" : 0.5
            }
        }
    ],
    "meshes" : [
        {
            "name" : "Cube",
            "primitives" : [
                {
                    "attributes" : {
                        "POSITION" : 0,
                        "NORMAL" : 1,
                        "TEXCOORD_0" : 2,
                        "JOINTS_0" : 3,
                        "WEIGHTS_0" : 4
                    },
                    "indices" : 5,
                    "material" : 0
                }
            ]
        }
    ],
    "textures" : [
        {
            "sampler" : 0,
            "source" : 0
        }
    ],
    "images" : [
        {
            "bufferView" : 6,
            "mimeType" : "image/png",
            "name" : "ToasterTex"
        }
    ],
    "skins" : [
        {
            "inverseBindMatrices" : 6,
            "joints" : [
                2,
                0,
                1
            ],
            "name" : "Toast_Rig"
        }
    ],
    "accessors" : [
        {
            "bufferView" : 0,
            "componentType" : 5126,
            "count" : 133,
            "max" : [
                0.5608360767364502,
                0.5923433899879456,
                0.8773692846298218
            ],
            "min" : [
                -0.5608360767364502,
                -0.6984131336212158,
                -0.9715229272842407
            ],
            "type" : "VEC3"
        },
        {
            "bufferView" : 1,
            "componentType" : 5126,
            "count" : 133,
            "type" : "VEC3"
        },
        {
            "bufferView" : 2,
            "componentType" : 5126,
            "count" : 133,
            "type" : "VEC2"
        },
        {
            "bufferView" : 3,
            "componentType" : 5121,
            "count" : 133,
            "type" : "VEC4"
        },
        {
            "bufferView" : 4,
            "componentType" : 5126,
            "count" : 133,
            "type" : "VEC4"
        },
        {
            "bufferView" : 5,
            "componentType" : 5123,
            "count" : 330,
            "type" : "SCALAR"
        },
        {
            "bufferView" : 7,
            "componentType" : 5126,
            "count" : 3,
            "type" : "MAT4"
        }
    ],
    "bufferViews" : [
        {
            "buffer" : 0,
            "byteLength" : 1596,
            "byteOffset" : 0,
            "target" : 34962
        },
        {
            "buffer" : 0,
            "byteLength" : 1596,
            "byteOffset" : 1596,
            "target" : 34962
        },
        {
            "buffer" : 0,
            "byteLength" : 1064,
            "byteOffset" : 3192,
            "target" : 34962
        },
        {
            "buffer" : 0,
            "byteLength" : 532,
            "byteOffset" : 4256,
            "target" : 34962
        },
        {
            "buffer" : 0,
            "byteLength" : 2128,
            "byteOffset" : 4788,
            "target" : 34962
        },
        {
            "buffer" : 0,
            "byteLength" : 660,
            "byteOffset" : 6916,
            "target" : 34963
        },
        {
            "buffer" : 0,
            "byteLength" : 6201,
            "byteOffset" : 7576
        },
        {
            "buffer" : 0,
            "byteLength" : 192,
            "byteOffset" : 13780
        }
    ],
    "samplers" : [
        {
            "magFilter" : 9729,
            "minFilter" : 9987
        }
    ],
    "buffers" : [
        {
            "byteLength" : 13972,
            "uri" : "data:application/octet-stream;base64,"
        }
    ]
}
